<svg width="18" height="18" viewBox="0 0 18 18" fill="none" xmlns="http://www.w3.org/2000/svg">
<path d="M0.666992 14.8334C0.666992 16.25 1.75033 17.3334 3.16699 17.3334H14.8337C16.2503 17.3334 17.3337 16.25 17.3337 14.8334V8.16669H0.666992V14.8334ZM14.8337 2.33335H13.167V1.50002C13.167 1.00002 12.8337 0.666687 12.3337 0.666687C11.8337 0.666687 11.5003 1.00002 11.5003 1.50002V2.33335H6.50033V1.50002C6.50033 1.00002 6.16699 0.666687 5.66699 0.666687C5.16699 0.666687 4.83366 1.00002 4.83366 1.50002V2.33335H3.16699C1.75033 2.33335 0.666992 3.41669 0.666992 4.83335V6.50002H17.3337V4.83335C17.3337 3.41669 16.2503 2.33335 14.8337 2.33335Z" fill="#9F9F9F"/>
</svg>
